<?xml version="1.0" encoding="UTF-8"?>
<svg version="1.1" viewBox="0 0 1600 1600" width="1280" height="1280" xmlns="http://www.w3.org/2000/svg">
<path transform="translate(1062,445)" d="m0 0c0.995 0.324 1.99 0.647 3.02 0.98 5.72 1.87 11.4 3.86 17 6.02v2h2v3c-1.84 1.36-1.84 1.36-4.38 2.75-4.64 2.64-8.97 5.52-13.3 8.64-6.65 4.61-6.65 4.61-9.32 4.61-0.33 0.99-0.66 1.98-1 3-1.4 0.97-2.82 1.93-4.26 2.84-2.5 1.67-4.7 3.62-6.95 5.6-1.16 1.02-2.34 2.02-3.54 3-5.48 4.51-9.98 9.69-14.4 15.2-2.14 2.64-4.38 5.01-6.88 7.31h-2c-0.247 0.727-0.495 1.45-0.75 2.2-1.38 3.08-3.01 5.03-5.25 7.55-8.07 9.63-14 20.8-19.4 32.1-1.19 2.41-2.43 4.77-3.71 7.13-4.97 9.15-9.22 18.2-12.8 28-0.234 0.603-0.467 1.21-0.708 1.83-2.51 6.52-4.54 13.2-6.6 19.9-5.59 17.9-14.6 32.7-27.2 46.6-1.64 1.8-1.64 1.8-3.45 4.26-10.3 12.2-25.4 22.4-39.1 30.4-0.737 0.471-1.47 0.941-2.23 1.43-8.31 4.99-17.3 7.36-26.6 9.94-1.89 0.545-3.75 1.16-5.61 1.79-2.68 0.869-4.78 1-7.57 0.836-1.15-2.3-1.1-3.5-1.04-6.06 0.0169-0.839 0.0337-1.68 0.0511-2.54 0.0239-0.911 0.0478-1.82 0.0724-2.76 0.0212-0.943 0.0425-1.89 0.0644-2.86 0.0464-2.01 0.0953-4.01 0.147-6.01 0.0768-3.03 0.145-6.05 0.211-9.08 0.644-27.9 0.644-27.9 3.49-36.7 0.484-2.18 0.912-4.37 1.34-6.56 1.79-9.06 4.09-17.8 7.02-26.5 0.631-1.91 1.23-3.83 1.82-5.75 2.81-8.94 6.45-16.9 10.8-25.2 1.39-2.76 2.77-5.51 4.1-8.3 0.318-0.664 0.637-1.33 0.965-2.01 0.481-1.02 0.481-1.02 0.973-2.05 0.965-1.64 0.965-1.64 2.96-2.64 1.05-2.08 1.05-2.08 2-4.5 1.78-4.39 1.78-4.39 4-5.5 1.02-1.62 1.02-1.62 1.95-3.6 0.354-0.719 0.709-1.44 1.07-2.18 0.365-0.755 0.73-1.51 1.11-2.29 0.373-0.759 0.745-1.52 1.13-2.3 0.921-1.88 1.83-3.76 2.75-5.64h2c0.375-1.08 0.375-1.08 0.758-2.19 1.35-3.06 2.98-5.24 5.12-7.81 0.678-0.825 1.36-1.65 2.05-2.5 0.683-0.825 1.37-1.65 2.07-2.5 0.683-0.866 1.37-1.73 2.07-2.62 1.57-1.93 3.16-3.64 4.93-5.38 0.966-1.16 1.92-2.33 2.88-3.5 2.46-2.91 4.79-4.62 8.12-6.5 1.16-1.12 2.31-2.25 3.43-3.42 5.93-5.98 12.4-12.1 19.6-16.6h2c0.33-0.99 0.66-1.98 1-3 1.32-0.702 2.65-1.37 4-2 0.429-0.445 0.859-0.889 1.3-1.35 2.14-2.08 4.47-3.51 7.01-5.09 2.92-1.82 5.77-3.62 8.56-5.62 4.15-2.58 8.54-4.49 13-6.47 3.08-1.38 3.08-1.38 5.69-3.03 7.44-4.4 16.6-6.08 24.9-8.04 3.66-0.871 7.05-1.95 10.5-3.39 9.46-2.04 18-0.0173 27 3zm-203 200v5h1v-5h-1zm-1 13 1 2zm-1 34 1 2z" fill="#FCFDFF"/>
<path transform="translate(839 499)" d="m0 0c1.57 0.00369 1.57 0.00369 3.17 0.00745 12.5 0.0525 25 0.405 37.5 1.31v2c1.98 0.495 1.98 0.495 4 1-0.632 0.597-0.632 0.597-1.28 1.21-2.65 2.76-4.83 5.86-7.1 8.93-0.802 0.922-0.802 0.922-1.62 1.86h-2c-0.66 1.65-1.32 3.3-2 5h-2c-0.263 0.726-0.526 1.45-0.797 2.2-1.22 2.85-2.65 5.1-4.45 7.61-0.616 0.861-1.23 1.72-1.87 2.61-7.3 9.99-7.3 9.99-8.88 11.6-1.73 0.0218-3.46-0.0111-5.19-0.0625-6.38-0.0494-12.7 0.368-19 0.938-0.914 0.0786-1.83 0.157-2.77 0.238-6.12 0.573-12 1.57-18 2.89-0.896 0.192-1.79 0.383-2.72 0.581-2.81 0.606-5.61 1.23-8.41 1.86-0.937 0.204-1.87 0.409-2.84 0.619-6.77 1.52-12.9 3.57-19.3 6.38-3.15 1.38-6.36 2.44-9.62 3.5-7.83 2.57-15.1 5.98-22.4 9.7-1.95 0.986-3.92 1.95-5.89 2.91-1.6 0.781-1.6 0.781-3.24 1.58-0.989 0.477-1.98 0.954-3 1.45-2.33 1.3-3.74 2.54-5.57 4.43-2.69 0.688-2.69 0.688-5 1-0.33 0.99-0.66 1.98-1 3-1.97 1.38-3.97 2.71-6 4-7.99 6.18-15.2 13.1-22.4 20.2-0.749 0.748-1.5 1.5-2.27 2.27-5.53 5.59-10.9 11.3-15.7 17.5-0.557 0.66-1.11 1.32-1.69 2h-2c-0.268 0.639-0.536 1.28-0.812 1.94-1.19 2.06-1.19 2.06-4.19 3.06-0.68 2-1.34 4-2 6-1.29 1.7-2.63 3.37-4 5-0.709 1.31-1.39 2.64-2 4h-2c-0.206 0.784-0.413 1.57-0.625 2.38-1.15 3.03-2.31 5.28-4 8-3.94 6.38-7.2 13.1-10.5 19.8-0.823 1.67-1.68 3.32-2.54 4.97-1.3 2.73-2.13 5.24-2.86 8.16-0.871 3.36-1.79 6.66-2.94 9.94-11.4 33.7-12.8 67.6-13.6 103h-52c-1.14-2.27-1.13-3.51-1.13-6.03-0.00315-0.832-0.0063-1.66-0.00955-2.52 0.00202-0.902 0.00405-1.8 0.00613-2.73-9.57e-4 -0.93-0.00191-1.86-0.0029-2.82-6.82e-4 -1.97 0.00117-3.95 0.00534-5.92 0.00531-3 7.65e-5 -6-0.00635-8.99 6.62e-4 -1.92 0.00194-3.84 0.00391-5.76-0.00202-0.888-0.00405-1.78-0.00613-2.69 0.053-14.4 0.053-14.4 2.14-18.5 0.266-1.66 0.487-3.32 0.684-4.99 0.183-1.52 0.183-1.52 0.369-3.06 0.19-1.61 0.19-1.61 0.385-3.26 0.268-2.19 0.538-4.39 0.809-6.58 0.13-1.06 0.26-2.11 0.394-3.2 1.96-15.8 1.96-15.8 5.36-22.9 0.499-1.41 0.977-2.83 1.44-4.25 1.72-5.3 3.63-10.5 5.56-15.8 0.269-0.736 0.539-1.47 0.816-2.23 0.246-0.666 0.492-1.33 0.746-2.02 0.208-0.562 0.415-1.12 0.629-1.7 2.47-6.24 5.26-12.4 8-18.5 0.552-1.24 0.552-1.24 1.12-2.51 0.899-2.02 1.8-4.04 2.7-6.06h2c0.147-0.545 0.294-1.09 0.445-1.65 1.87-6.29 4.74-11.1 8.55-16.3 1.21-1.75 2.42-3.5 3.62-5.25 1.83-2.62 3.68-5.13 5.69-7.62 1.73-2.03 1.73-2.03 2.75-4.25 1.05-2.1 2.25-3.25 3.94-4.88 5.13-6.26 9.99-12.8 14.4-19.6 1.62-2.38 1.62-2.38 3.62-3.38 0.97-1.03 1.9-2.1 2.81-3.19 0.802-0.947 0.802-0.947 1.62-1.91 1.34-1.63 2.65-3.29 3.94-4.96 2.71-3.03 5.49-5.2 8.77-7.56 2.17-1.61 3.98-3.44 5.85-5.38 4.05-3.32 8.23-6.44 12.4-9.57 2.23-1.67 4.47-3.34 6.68-5.03 4.57-3.48 9.25-6.77 14-10 2.5-1.71 4.98-3.44 7.41-5.24 6.74-4.98 14-8.54 21.5-12.2 1.94-0.945 3.86-1.92 5.78-2.91 6.94-3.57 13.9-6.58 21.2-9.08 1.36-0.493 2.71-0.993 4.06-1.5 0.639-0.238 1.28-0.477 1.94-0.723 1.41-0.546 2.8-1.12 4.19-1.71 24.8-10.5 51.6-11.4 78.1-11.4zm-254 176 1 2zm-14 39 1 3zm-6 39v6h1v-6h-1zm-1 9v6h1v-6h-1z" fill="#FBFCFE"/>
<path transform="translate(1035,798)" d="m0 0c-0.33 0.33-0.66 0.66-1 1-0.253 2-0.445 4.01-0.613 6.03-0.111 1.26-0.223 2.52-0.338 3.82-0.0586 0.669-0.117 1.34-0.177 2.03-0.85 9.55-1.71 19.1-3.81 28.4-0.145 0.666-0.291 1.33-0.441 2.02-1.25 5.18-3.36 9.88-5.62 14.7-0.786 0.00411-1.57 0.00822-2.38 0.0125-16.2 0.146-32.2 0.987-48.2 3.3-0.721 0.101-1.44 0.201-2.18 0.305-9.65 1.37-18.9 3.51-28.2 6.38-1.55 0.441-3.11 0.878-4.66 1.31-8.39 2.37-16.4 5.13-24.3 8.69-1.34 0.578-2.67 1.16-4.01 1.73-8.52 3.67-8.52 3.67-16.9 7.71-3.12 1.56-3.12 1.56-5.12 1.56v2c-11.7 5.86-11.7 5.86-13.9 6.92-1.43 0.719-2.86 1.45-4.28 2.19-3.59 1.85-6.85 3.38-10.9 4.14-0.763 0.15-1.53 0.299-2.31 0.453-0.557 0.098-1.11 0.196-1.69 0.297v2c-1.11 0.568-2.22 1.14-3.37 1.72-7.44 3.85-14.6 7.7-21.4 12.7-5.59 4.02-11.6 7.3-17.7 10.6-3.86 2.08-7.57 4.3-11.2 6.69-11.4 7.38-11.4 7.38-15.3 7.38-0.33 0.99-0.66 1.98-1 3-1.88 0.976-3.77 1.94-5.7 2.84-4.94 2.48-9.39 5.8-13.9 8.99-4.37 3.1-8.55 5.89-13.4 8.16-7.82 4.04-14.9 8.96-21.9 14.2-0.969 0.712-1.94 1.42-2.94 2.16-0.884 0.656-1.77 1.31-2.68 1.99-2.1 1.46-4.12 2.64-6.45 3.7v2c-1.67 1-3.33 2-5 3-1.77 1.62-3.38 3.24-5 5-1.01 1.09-1.01 1.09-2.04 2.2-6.29 6.88-12.3 14-17.7 21.6-2.23 3.08-4.63 5.5-7.31 8.19-2.39 2.95-4.71 5.97-7 9-2.61-0.978-3.77-1.54-5.05-4.07-2.94-10.9-3.05-22 0.0469-32.9 0.148-0.766 0.296-1.53 0.449-2.32 2.02-9.39 6.97-17.5 11.6-25.9 0.686-1.25 1.35-2.52 1.98-3.8h2c0.227-0.722 0.454-1.44 0.688-2.19 1.58-3.38 3.62-5.25 6.31-7.81 1.36-1.65 2.69-3.31 4-5 0.701-0.866 1.4-1.73 2.12-2.62 1.97-2.43 1.97-2.43 3.88-5.38h2c0.17-0.69 0.34-1.38 0.516-2.09 2.17-4.26 5.51-6.57 9.23-9.47 1.06-0.846 1.06-0.846 2.13-1.71 11-8.73 11-8.73 14.1-8.73 0.33-0.99 0.66-1.98 1-3 2.59-1.8 2.59-1.8 5.94-3.75 4.12-2.44 8.12-4.93 12-7.75 4.39-3.13 8.97-5.81 13.7-8.44 7.63-4.29 15.3-8.69 22.3-13.9 2.95-2.11 5.8-3.62 9.06-5.19 8.51-4.43 8.51-4.43 16.3-9.94 2.17-1.66 3.89-2.72 6.31-3.88 5.42-2.6 10.3-5.92 15.4-9.19 1.87-1.19 3.75-2.38 5.62-3.56 3.34-2.12 6.65-4.28 9.94-6.5 10.2-6.82 20.8-13 32.1-17.9 7.57-3.35 14.7-7.22 21.8-11.5 8.63-5.28 17.6-9.82 27.3-12.8 2.02-0.65 4.01-1.4 5.99-2.16 4.39-1.66 8.83-2.9 13.4-4.07 0.824-0.214 1.65-0.429 2.5-0.649 13.4-3.42 26.6-5.85 40.4-6.2 1.24-0.0347 1.24-0.0347 2.5-0.0702 1.73-0.0473 3.46-0.0925 5.2-0.136 2.61-0.067 5.23-0.145 7.84-0.224 24.3-0.672 24.3-0.672 29.5 2.78zm-367 207 1 2z" fill="#FCFDFF"/>
<path transform="translate(1e3 970)" d="m0 0c1.82 0.0168 3.64 0.0296 5.46 0.0386 4.76 0.0341 9.51 0.122 14.3 0.222 4.87 0.0927 9.73 0.133 14.6 0.179 9.52 0.096 19 0.249 28.6 0.439 0.581 1.87 0.581 1.87 1 4-1.29 2.15-1.29 2.15-3.19 4.38-2.14 2.59-4.09 5.06-5.94 7.88-2.02 2.97-4.31 5.24-6.88 7.75-0.906 1.1-1.8 2.2-2.69 3.31-1.14 1.33-1.14 1.33-2.31 2.69h-2c-0.268 0.639-0.536 1.28-0.812 1.94-1.19 2.06-1.19 2.06-4.19 3.06-0.289 0.742-0.577 1.49-0.875 2.25-1.41 3.45-3.43 5.18-6.12 7.75-0.908 1.09-1.8 2.2-2.69 3.31-0.763 0.887-1.53 1.77-2.31 2.69h-2c-0.33 0.99-0.66 1.98-1 3-1.78 1.61-1.78 1.61-3.94 3.19-0.71 0.53-1.42 1.06-2.15 1.61-1.91 1.21-1.91 1.21-3.91 1.21-0.33 0.99-0.66 1.98-1 3-1.33 0.681-2.66 1.35-4 2-1.72 1.73-1.72 1.73-3.31 3.75-2.28 2.72-4.53 5.05-7.31 7.25-7.47 6.24-10.3 15.3-14.4 24h-281c1.91-13.4 11.2-27.7 21.8-36.3 2.71-2.18 5.24-4.52 7.8-6.87 7.68-6.98 7.68-6.98 11.4-9.88 0.663-0.561 1.33-1.12 2.01-1.7 5.52-4.28 5.52-4.28 9.51-4.34 4.62 0.866 8.94 2.51 13.3 4.25 4.61 1.66 9.41 2.69 14.2 3.79 0.848 0.197 1.7 0.394 2.57 0.598 5.64 1.22 11.2 1.79 17 2.16 2.47 0.246 2.47 0.246 4.47 1.25 9.77 1.37 19.7 1.2 29.6 1.19 1.19 5.89e-4 1.19 5.89e-4 2.4 0.00119 19.2 1.45 19.2 1.45 36-3.19 1.97-0.296 3.95-0.587 5.93-0.85 10.9-1.47 20.8-4.33 31.1-8.15 0.711-0.259 1.42-0.518 2.15-0.785 3.38-1.24 6.67-2.51 9.85-4.21 2.54-1.36 4.97-2.35 7.7-3.33 4.63-1.71 8.83-3.99 13.1-6.42 0.786-0.442 1.57-0.885 2.38-1.34 11.1-6.19 11.1-6.19 21.2-13.8 0.777-0.674 0.777-0.674 1.57-1.36 1.47-1.3 2.89-2.64 4.29-4.01 9.1-8 17.1-7.96 28.8-7.64z" fill="#FCFDFF"/>
<path transform="translate(1193 566)" d="m0 0c6.42-0.335 6.42-0.335 9.5 2.43 0.516 0.928 1.03 1.86 1.56 2.81 0.468 0.732 0.936 1.46 1.42 2.22 1.85 3.25 3.18 6.6 4.46 10.1 0.387 1.05 0.387 1.05 0.783 2.12 6.63 18.2 11.5 36.3 13.3 55.6-2.04-0.455-4.08-0.914-6.12-1.38-1.71-0.383-1.71-0.383-3.45-0.773-3.22-0.799-6.3-1.77-9.43-2.85-23.2-7.55-77.4-13-100-2.01-0.65 0.334-1.3 0.668-1.97 1.01-2.62 0.608-5.24 1.16-7.88 1.69-7.41 1.56-14.6 3.57-21.8 5.88-1.38 0.439-1.38 0.439-2.79 0.887-4.97 1.62-9.75 3.42-14.5 5.55-1.28 0.54-2.55 1.08-3.83 1.61-7.78 3.3-15 6.86-22.2 11.4-1.19 0.713-2.39 1.42-3.59 2.13-8.13 4.8-16.1 9.7-23.6 15.6-1.86 1.3-1.86 1.3-3.86 1.3-0.33 0.99-0.66 1.98-1 3-1.74 1.57-1.74 1.57-3.88 3.12-1.05 0.777-1.05 0.777-2.12 1.57-2.01 1.3-2.01 1.3-5.01 2.3-0.33 0.99-0.66 1.98-1 3-3.26 2.99-6.75 5.51-10.9 7.12-2.78 1.14-2.92 2.17-4.12 4.88-1.56 2.14-3.21 4.03-5 6h-2c-0.235 0.553-0.469 1.11-0.711 1.68-1.62 2.92-3.63 5.07-5.91 7.51-0.722 0.775-0.722 0.775-1.46 1.57-1.07 1.14-2.13 2.28-3.2 3.42-1.76 1.88-3.51 3.77-5.26 5.65-7.28 7.84-14.7 15.6-22.2 23.2-1.37 1.39-2.73 2.8-4.09 4.2-0.846 0.854-1.69 1.71-2.56 2.59-0.747 0.761-1.49 1.52-2.26 2.31-2.67 2.14-5.11 2.87-8.35 3.89-1.13 2.02-1.13 2.02-2 4-1.33 0.362-2.66 0.697-4 1-0.33 0.99-0.66 1.98-1 3-4.92 4.54-10.5 8.22-16 12-0.891 0.644-0.891 0.644-1.8 1.3-3.02 2.15-5.5 3.26-9.2 3.7-0.33 0.99-0.66 1.98-1 3-2.84 1.61-2.84 1.61-6.38 3.19-1.16 0.53-2.33 1.06-3.52 1.61-3.1 1.21-3.1 1.21-6.1 1.21-1.24-2.48-1.15-4.18-1.18-6.95-0.0128-1.03-0.0257-2.06-0.0389-3.12-0.00739-1.12-0.0148-2.24-0.0224-3.39-0.00807-1.14-0.0161-2.29-0.0245-3.47-0.0138-2.42-0.0246-4.85-0.0324-7.27-0.0172-3.72-0.0611-7.43-0.105-11.1-0.0101-2.35-0.0186-4.7-0.0254-7.05-0.0175-1.12-0.035-2.23-0.0531-3.38 0.00293-1.03 0.00585-2.07 0.00887-3.13-0.00587-0.911-0.0117-1.82-0.0178-2.76 0.488-2.32 0.488-2.32 2.4-4.09 2.04-1.2 3.74-1.89 6.03-2.47 0.743-0.195 1.49-0.39 2.25-0.591 1.17-0.297 1.17-0.297 2.37-0.6 1.63-0.437 3.27-0.877 4.9-1.32 0.786-0.213 1.57-0.426 2.38-0.646 9.7-2.69 18.4-7.08 27.3-11.7 2.41-1.23 4.84-2.43 7.26-3.62 5.31-2.65 10.5-5.51 15.6-8.52 4.77-2.8 4.77-2.8 6.95-2.8v-2c1.91-1.3 1.91-1.3 4.5-2.75 3.97-2.31 7.66-4.74 11.3-7.55 1.72-1.32 3.45-2.62 5.2-3.91 1.58-1.17 1.58-1.17 3.2-2.36 0.984-0.723 1.97-1.45 2.98-2.19 2.84-2.25 5.32-4.64 7.83-7.25l5-5c0.722-0.743 1.44-1.49 2.19-2.25 4.93-4.82 10-9.55 15.4-13.8 2.11-1.73 3.7-3.38 5.38-5.51 2.41-2.91 4.69-4.57 8-6.44 1.67-1.66 3.34-3.33 5-5 7.74-6.86 15.9-13 24.4-18.9 1.45-1.01 2.89-2.03 4.33-3.06 9.14-6.49 18.6-12.4 28.3-18.1 0.971-0.579 1.94-1.16 2.94-1.75 5.37-3.17 10.8-6.2 16.4-8.93 2.64-1.29 5.26-2.62 7.87-3.95 6.16-3.12 12.3-5.97 18.8-8.36 1.32-0.489 1.32-0.489 2.67-0.988 1.85-0.677 3.7-1.35 5.55-2.01 1.81-0.653 3.62-1.32 5.42-2 10.3-3.88 20.9-6.75 31.7-9.19 0.728-0.167 1.46-0.334 2.21-0.506 4.53-0.997 9-1.65 13.6-2.05 1.95-0.163 1.95-0.163 3.86-1.25 5.3-0.624 10.6-0.808 15.9-1.24z" fill="#FCFDFF"/>
<path transform="translate(699,1108)" d="m0 0c36-0.0229 72.1-0.0405 108-0.0511 4.25-0.00125 8.5-0.00255 12.7-0.00387 0.846-2.62e-4 1.69-5.25e-4 2.56-7.95e-4 13.7-0.00436 27.4-0.0122 41.2-0.0214 14.1-0.00934 28.1-0.0149 42.2-0.0169 8.69-0.00138 17.4-0.00573 26.1-0.0138 5.95-0.00527 11.9-0.00689 17.8-0.00558 3.44 6.44e-4 6.87-3.76e-4 10.3-0.0057 3.72-0.00493 7.43-0.0038 11.2-0.00105 1.65-0.00437 1.65-0.00437 3.33-0.00883 0.988 0.00199 1.98 0.00398 2.99 0.00603 0.859-3.8e-4 1.72-7.59e-4 2.6-0.00115 1.94 0.124 1.94 0.124 2.94 1.12 0.0885 2.52 0.115 5.01 0.0977 7.54-0.00212 1.13-0.00212 1.13-0.00429 2.28-0.00561 2.41-0.0182 4.83-0.0309 7.24-0.00501 1.63-0.00958 3.27-0.0137 4.9-0.011 4.01-0.0283 8.02-0.0488 12-36.2 0.0229-72.3 0.0405-108 0.0511-4.26 0.00125-8.53 0.00255-12.8 0.00387-0.849 2.62e-4 -1.7 5.25e-4 -2.57 7.95e-4 -13.8 0.00436-27.5 0.0122-41.3 0.0214-14.1 0.00934-28.2 0.0149-42.3 0.0169-8.72 0.00138-17.4 0.00573-26.2 0.0138-5.97 0.00527-11.9 0.00689-17.9 0.00558-3.45-6.44e-4 -6.9 3.76e-4 -10.3 0.0057-3.73 0.00493-7.46 0.0038-11.2 0.00105-1.1 0.00291-2.2 0.00583-3.34 0.00883-0.991-0.00199-1.98-0.00398-3-0.00603-0.862 3.8e-4 -1.72 7.59e-4 -2.61 0.00115-1.95-0.124-1.95-0.124-2.95-1.12-0.101-2.35-0.14-4.67-0.133-7.03-9.57e-4 -0.704-0.00191-1.41-0.0029-2.13-6.82e-4 -1.49 0.00117-2.98 0.00534-4.48 0.00534-2.29 5.9e-5 -4.57-0.00635-6.86 6.61e-4 -1.45 0.00194-2.89 0.00391-4.34-0.00202-0.687-0.00405-1.37-0.00613-2.08 0.024-4.85 0.024-4.85 1.14-7.08z" fill="#FBFCFE"/>
<path transform="translate(723 1180)" d="m0 0c0.849-0.00261 1.7-0.00522 2.57-0.0079 1.41 0.00335 1.41 0.00335 2.84 0.00676 0.993-0.00156 1.99-0.00312 3.01-0.00473 3.35-0.00401 6.69-8.21e-4 10 0.00232 2.39-0.00135 4.78-0.00313 7.17-0.00531 5.83-0.0041 11.7-0.00348 17.5-5.87e-4 4.74 0.00226 9.48 0.00257 14.2 0.00148 1.01-2.3e-4 1.01-2.3e-4 2.04-4.64e-4 1.37-3.2e-4 2.74-6.44e-4 4.1-9.73e-4 12.8-0.00285 25.7 4.31e-4 38.5 0.0058 11 0.00447 22.1 0.00369 33.1-9.19e-4 12.8-0.00535 25.6-0.00746 38.4-0.00439 1.36 3.19e-4 2.73 6.33e-4 4.09 9.43e-4 0.671 1.54e-4 1.34 3.09e-4 2.03 4.68e-4 4.74 8.65e-4 9.47-5.97e-4 14.2-0.00295 6.37-0.00309 12.7-9.02e-4 19.1 0.00489 2.34 0.00133 4.69 9.34e-4 7.03-0.00126 3.19-0.00271 6.37 6.71e-4 9.56 0.00568 0.938-0.00223 1.88-0.00446 2.84-0.00676 1.27 0.00391 1.27 0.00391 2.57 0.0079 0.736 1.62e-4 1.47 3.25e-4 2.23 4.92e-4 1.8 0.125 1.8 0.125 3.8 1.13-0.724 8.78-1.62 16.5-8 23-0.99 0.33-1.98 0.66-3 1-0.33 0.99-0.66 1.98-1 3-8.92 6.69-20 5.72-30.5 5.66-1.96 0.00842-3.92 0.019-5.89 0.0314-5.3 0.027-10.6 0.0224-15.9 0.0103-4.44-0.00715-8.88 0.00138-13.3 0.00991-10.5 0.0199-20.9 0.0144-31.4-0.00768-10.8-0.0224-21.6-0.00476-32.4 0.033-9.28 0.0313-18.6 0.0391-27.8 0.028-5.53-0.00647-11.1-0.00457-16.6 0.0193-5.21 0.0213-10.4 0.0132-15.6-0.0171-1.9-0.0063-3.81-0.00253-5.71 0.0124-12 0.0866-22-0.495-31.3-9.06-5.52-5.73-8.65-11.1-8.71-19.2 0.0476-1.52 0.105-3.04 0.188-4.56 2.27-1.14 3.51-1.13 6.04-1.13z" fill="#FBFCFE"/>
<path transform="translate(1101,676)" d="m0 0c1.36 2.7 2.46 5.24 3.5 8.06 0.57 1.49 1.14 2.98 1.72 4.47 0.287 0.745 0.574 1.49 0.869 2.26 0.892 2.16 1.9 4.2 2.97 6.27 1.97 3.85 3.28 7.71 4.44 11.9 0.312 1.09 0.312 1.09 0.63 2.21 3.35 11.9 6.09 23.7 7.48 36.1 0.0966 2.68 0.0966 2.68 1.39 3.78 0.125 3 0.125 3 0 6-1.61 1.61-3.36 1.13-5.59 1.13-0.979 0.00315-1.96 0.0063-2.97 0.00955-1.07-0.00202-2.14-0.00405-3.24-0.00613-1.65 0.00144-1.65 0.00144-3.33 0.0029-2.34 6.83e-4 -4.68-0.00118-7.02-0.00534-3.54-0.00529-7.08-9e-5 -10.6 0.00635-2.28-6.62e-4 -4.55-0.00195-6.83-0.00391-1.05 0.00202-2.09 0.00405-3.17 0.00613-6.46-0.02-12.8-0.349-19.3-0.912-4.63-0.355-9.25-0.373-13.9-0.352-0.893-0.00387-1.79-0.00773-2.71-0.0117-0.869 0.00129-1.74 0.00258-2.63 0.00391-1.15 0.00169-1.15 0.00169-2.32 0.00342-2.48 0.0846-2.48 0.0846-5.19 0.625-3.06 0.481-5.94 0.661-9.04 0.71-1.12 0.0199-2.24 0.0399-3.4 0.0604-1.19 0.0167-2.39 0.0334-3.62 0.0506-1.85 0.0312-1.85 0.0312-3.74 0.063-3.93 0.0652-7.87 0.124-11.8 0.183-2.67 0.0427-5.34 0.0868-8.01 0.131-6.54 0.107-13.1 0.209-19.6 0.307-0.33-0.66-0.66-1.32-1-2 0.436-0.485 0.871-0.969 1.32-1.47 3.05-3.43 5.96-6.85 8.62-10.6 2.68-3.65 5.73-6.45 9.19-9.35 2.05-1.69 2.05-1.69 4.44-4.15 4.51-4.51 9.45-8.48 14.4-12.4 0.99-0.825 1.98-1.65 3-2.5 1.77-1.48 3.56-2.94 5.37-4.38 1.73-1.4 3.43-2.83 5.1-4.3 5.47-4.76 10.4-7.96 17.2-10.5 3.93-1.56 7.66-3.4 11.4-5.31 0.687-0.347 1.37-0.693 2.08-1.05 2.89-1.46 5.77-2.94 8.65-4.43 5.9-3.04 11.9-5.41 18.1-7.52 1.14-0.387 2.27-0.773 3.45-1.17 1.73-0.565 1.73-0.565 3.49-1.14 1.59-0.52 1.59-0.52 3.21-1.05 2.93-0.654 4.11-0.714 6.85 0.363z" fill="#FCFDFF"/>
<path transform="translate(995,897)" d="m0 0c0.781 2.11 0.781 2.11 1 5-1.42 2.32-2.77 4.2-4.5 6.25-0.935 1.15-1.87 2.31-2.8 3.46-0.462 0.56-0.925 1.12-1.4 1.7-1.71 2.1-3.31 4.29-4.92 6.47-2.85 3.69-6.03 6.62-9.68 9.52-1.85 1.75-2.58 3.34-3.7 5.61-1.55 1.53-1.55 1.53-3.31 2.94-2.3 1.88-4.45 3.78-6.5 5.94-2.19 2.12-2.19 2.12-4.19 2.12-0.33 0.99-0.66 1.98-1 3-13.1 10.9-30 19.2-46 25-0.902 0.336-1.8 0.673-2.73 1.02-2.75 1.01-5.51 2-8.27 2.98-0.681 0.257-1.36 0.513-2.06 0.777-28.5 10.3-69.3 14.3-97.9 3.22 0.33-0.99 0.66-1.98 1-3 1.67-0.734 3.34-1.46 5.04-2.12 2.03-0.911 3.62-1.98 5.39-3.32 4.76-3.54 9.82-6.01 15.4-7.88 4.26-1.54 7.57-4 11.2-6.66 8.54-5.97 17.8-11.1 26.9-16 4.7-2.59 9.37-5.21 14-7.9 6.02-3.47 12.1-6.69 18.3-9.75 2.25-1.15 4.35-2.36 6.46-3.73 9.9-6.36 19.9-11.2 31.2-14.6 3.47-1.23 6.91-2.52 10.3-4.01 5.88-2.15 12.3-2.69 18.5-3.62 0.741-0.113 1.48-0.227 2.25-0.344 10.7-1.62 21.2-2.78 32-2.03z" fill="#FBFCFE"/>
<path transform="translate(1130,480)" d="m0 0c2.57 1.9 2.57 1.9 5.12 4.38 2.58 2.47 4.89 4.64 7.88 6.62v2c0.548 0.229 1.1 0.459 1.66 0.695 3.01 1.68 5.26 3.82 7.78 6.18 2.68 2.5 5.32 4.94 8.22 7.18 2.34 1.95 3.73 3.69 5.34 6.26 1.86 2.93 3.77 5.74 5.88 8.5 2.12 3.19 2.12 3.19 2.12 7.19-0.589 0.105-1.18 0.211-1.78 0.32-2.72 0.491-5.44 0.992-8.15 1.49-0.926 0.166-1.85 0.331-2.81 0.502-5.27 0.981-10.3 2.23-15.3 4.01-2.28 0.802-4.58 1.44-6.92 2.05-11.2 3.01-22.3 6.02-33 10.6-1.87 0.771-3.75 1.54-5.62 2.31-10.7 4.49-21.3 9.06-31.6 14.4-2.61 1.27-5.22 2.36-7.93 3.4-8.08 3.14-15.2 7.75-22.4 12.5-2.38 1.45-2.38 1.45-5.38 2.45-0.33 0.99-0.66 1.98-1 3-2 0.667-4 1.33-6 2-0.33 0.99-0.66 1.98-1 3-1.78 1.39-1.78 1.39-3.94 2.69-0.71 0.437-1.42 0.874-2.15 1.32-1.91 0.988-1.91 0.988-3.91 0.988-1.37-3.7-0.522-5.46 1-9l1.07-2.68c0.977-2.44 1.95-4.88 2.93-7.32h2c0.0825-0.701 0.165-1.4 0.25-2.12 0.929-3.56 2.67-5.84 4.75-8.88 0.625-1.2 1.23-2.41 1.81-3.62 1.81-3.7 3.78-7.29 5.81-10.9 0.59-1.04 1.18-2.08 1.79-3.16 0.523-0.773 1.05-1.55 1.59-2.34h2c0.309-0.99 0.309-0.99 0.625-2 3.11-6.78 7.85-11.7 13.5-16.4 3.11-2.62 5.91-5.55 8.68-8.53 8.06-8.46 17.5-15.4 27.9-20.8 2.87-1.57 5.61-3.32 8.38-5.07 22.9-14.2 22.9-14.2 30.9-13.2z" fill="#FCFDFF"/>
<path transform="translate(891 1250)" d="m0 0c1.68-0.00973 1.68-0.00973 3.4-0.0197 0.991-6.04e-4 1.98-0.00121 3-0.00183 0.836-0.00205 1.67-0.00411 2.53-0.00623 1.98 0.121 1.98 0.121 3.98 1.12 0.288 4.79-0.558 8.01-2.5 12.4-0.464 1.06-0.928 2.12-1.41 3.21-0.361 0.797-0.722 1.59-1.09 2.41h-2c-0.165 0.701-0.33 1.4-0.5 2.12-3.89 7.45-13 11.1-20.5 13.9-25.1 7-58.8 6.22-82-6v-2c-0.744-0.25-1.49-0.5-2.25-0.758-8.55-3.87-13.4-13.9-16.7-22.2v-3c12.4-0.132 24.8-0.263 37.3-0.391 5.77-0.0598 11.5-0.12 17.3-0.182 44.1-0.469 44.1-0.469 61.5-0.521z" fill="#FCFDFF"/>
<path transform="translate(1077 796)" d="m0 0c0.842 0.00143 1.68 0.00285 2.55 0.00432 0.954-0.00308 1.91-0.00615 2.89-0.00932 1.03 0.00719 2.07 0.0144 3.13 0.0218 1.06 4.58e-4 2.12 9.16e-4 3.21 0.00139 2.24 0.00302 4.48 0.0109 6.72 0.0233 3.44 0.0182 6.87 0.0205 10.3 0.0203 2.17 0.00492 4.34 0.0107 6.52 0.0176 1.03 0.00111 2.07 0.00223 3.13 0.00337 1.43 0.00957 1.43 0.00957 2.89 0.0193 0.842 0.00381 1.68 0.00762 2.55 0.0116 2.05 0.134 2.05 0.134 4.05 1.13 1.15 44.7 1.15 44.7-6 59h-54c-1.04-5.2-0.951-5.58 1-10 0.54-2.28 1.04-4.58 1.5-6.88 0.704-3.48 1.4-6.83 2.53-10.2 2.02-6.87 1.78-14.4 2.18-21.5 0.0748-1.18 0.15-2.36 0.227-3.58 0.0606-1.08 0.121-2.15 0.184-3.26 0.464-3.17 1.13-4.44 4.43-4.84z" fill="#FCFDFF"/>
<path transform="translate(1049 896)" d="m0 0c0.987 0.00143 1.97 0.00285 2.99 0.00432 1.12-0.00308 2.24-0.00615 3.39-0.00932 1.82 0.0108 1.82 0.0108 3.67 0.0218 1.24 4.58e-4 2.48 9.16e-4 3.75 0.00139 3.29 0.0038 6.58 0.0168 9.88 0.0335 3.36 0.0135 6.71 0.0103 10.1 0.0101 2.54 0.00492 5.08 0.0107 7.62 0.0176 1.21 0.00111 2.43 0.00223 3.68 0.00337 1.67 0.00957 1.67 0.00957 3.38 0.0193 1.48 0.00572 1.48 0.00572 2.99 0.0116 2.23 0.134 2.23 0.134 3.23 1.13-0.256 7.82-2.8 13.9-6 21-0.524 1.23-1.05 2.46-1.56 3.69-1.79 4.12-3.62 8.21-5.44 12.3h-67c0-3.65 0.902-4.64 2.94-7.63 3.7-5.61 6.79-11.4 9.78-17.4 2.24-4.39 4.57-7.58 8.29-10.9 2-2 2-2 4.36-2.25z" fill="#FCFDFF"/>
<path transform="translate(699,707)" d="m0 0c19.9-0.39 19.9-0.39 28 2 1.01 0.291 2.02 0.583 3.05 0.883 5.53 1.72 10.5 3.38 14.9 7.12v2c0.579 0.245 1.16 0.49 1.75 0.742 10.7 6 16.8 20.5 21.2 31.3v2h2c0.398 0.94 0.398 0.94 0.805 1.9 0.353 0.817 0.706 1.63 1.07 2.48 0.348 0.812 0.696 1.62 1.05 2.46 0.995 2.3 0.995 2.3 3.07 4.16-0.643-0.121-1.29-0.242-1.95-0.367-5.07-0.94-10.1-1.79-15.2-2.51-12.9-1.97-27.9-4.66-38.8-12.1v-2c-0.577-0.247-1.15-0.495-1.75-0.75-2.58-1.43-4.31-3.03-6.25-5.25v-2h-2c-4-6.62-4-6.62-4-10h-2c-0.853-1.97-1.68-3.95-2.5-5.94-0.464-1.1-0.928-2.2-1.41-3.34-1.29-4.39-1.33-8.19-1.09-12.7z" fill="#FBFCFE"/>
<path transform="translate(575 845)" d="m0 0c1.59 1.13e-4 1.59 1.13e-4 3.21 2.29e-4 1.15 0.00516 2.3 0.0103 3.48 0.0156 1.17 0.00141 2.35 0.00283 3.56 0.00429 3.76 0.00561 7.52 0.0182 11.3 0.0309 2.54 0.00501 5.09 0.00958 7.63 0.0137 6.25 0.011 12.5 0.0278 18.7 0.0488v2h2c0.385 1.16 0.385 1.16 0.779 2.35 1.18 3.55 2.36 7.1 3.53 10.6 0.606 1.83 0.606 1.83 1.22 3.7 2.51 7.57 2.51 7.57 5.26 15.1 1.21 3.25 1.21 3.25 1.21 5.25-7.64 0.223-15.3 0.425-22.9 0.598-3.55 0.0813-7.1 0.17-10.6 0.276-4.08 0.122-8.16 0.21-12.2 0.297-1.28 0.0425-2.55 0.085-3.86 0.129-1.18 0.0203-2.36 0.0406-3.58 0.0616-1.56 0.04-1.56 0.04-3.16 0.0807-2.6-0.443-2.6-0.443-4.41-2.32-1.29-2.31-1.88-4.28-2.37-6.87-0.159-0.799-0.317-1.6-0.48-2.42-0.11-0.603-0.219-1.21-0.332-1.83h-1c-0.679-3.02-1.34-6.04-2-9.06-0.286-1.27-0.286-1.27-0.578-2.57-1.06-4.91-1.64-9.35-1.42-14.4 2.53-1.26 4.26-1.12 7.09-1.11z" fill="#FBFCFE"/>
<path transform="translate(594,922)" d="m0 0h74c1 5 1 5-0.695 7.68-0.802 0.909-1.6 1.82-2.43 2.75-0.829 0.958-1.66 1.92-2.51 2.9-0.78 0.878-1.56 1.76-2.36 2.66-2.48 2.93-4.87 5.8-7 9h-2c-0.278 1.18-0.278 1.18-0.562 2.38-1.64 4.14-3.89 7.23-6.49 10.8-3.83 5.51-7.82 11.4-9.95 17.8-4.39-0.424-6.65-3.34-9.44-6.44-0.514-0.562-1.03-1.12-1.56-1.7-20-22.4-20-22.4-20-29.9h-2c-1.36-2.62-2.72-5.25-4.06-7.88-0.39-0.746-0.78-1.49-1.18-2.26-0.546-1.07-0.546-1.07-1.1-2.17-0.34-0.66-0.681-1.32-1.03-2-0.205-0.56-0.41-1.12-0.621-1.7 0.33-0.66 0.66-1.32 1-2z" fill="#FBFCFE"/>
<path transform="translate(772,635)" d="m0 0c0.33 0.66 0.66 1.32 1 2 1.08 0.402 1.08 0.402 2.17 0.812 3.55 1.49 6.2 3.7 9.08 6.19 0.568 0.489 1.14 0.978 1.72 1.48 8.99 7.87 17.5 16.4 20 28.5 0.222 3.56 0.185 7.12 0.188 10.7 0.0122 0.956 0.0245 1.91 0.0371 2.9 0.0108 5.3-0.424 10-1.71 15.2-0.922 4.05-1.24 8.17-1.64 12.3-0.0864 0.866-0.173 1.73-0.262 2.62-0.209 2.1-0.412 4.21-0.613 6.31-7.32-6.19-14-12.7-20.2-20-1.88-2.11-3.87-4.04-5.91-6-5.71-5.67-9.37-10.9-9.88-19h-1c-0.284-16 0.145-29.2 7-44z" fill="#FBFCFE"/>
<path transform="translate(736,794)" d="m0 0c1.92 0.711 3.83 1.42 5.75 2.12 5.02 1.94 9.95 4 14.8 6.31 1.7 0.802 1.7 0.802 3.44 1.62 3.58 2.32 4.9 4.29 7 7.94-1.1 0.471-2.19 0.941-3.32 1.43-1.45 0.629-2.91 1.26-4.36 1.89-0.721 0.309-1.44 0.617-2.19 0.936-3.9 1.69-7.49 3.55-11.1 5.75-2.01 0.888-4.03 1.74-6.06 2.56-4.12 1.66-4.12 1.66-8.13 3.55-7.03 3.45-18.7 3.07-25.9 1-0.95-0.367-1.9-0.735-2.88-1.11-0.762-0.269-1.52-0.539-2.31-0.816-4.06-1.78-7.89-3.96-11.8-6.12-0.802-0.443-1.6-0.886-2.43-1.34-0.777-0.432-1.55-0.865-2.35-1.31-0.701-0.391-1.4-0.781-2.13-1.18-2.15-1.3-4.14-2.56-6.03-4.23v-3c0.928-0.516 1.86-1.03 2.81-1.56 3.26-1.86 6.41-3.84 9.56-5.88 14.2-9.03 30.9-16.9 47.6-8.56z" fill="#FCFDFF"/>
<path transform="translate(470 820)" d="m0 0c1.84-0.0266 3.67-0.0675 5.51-0.123 2.65-0.0793 5.3-0.112 7.96-0.136 0.816-0.033 1.63-0.066 2.47-0.1 3.46 0.0121 5.68 0.113 8.45 2.31 2.7 3.01 4.02 4.74 4.56 8.82-0.438 2.69-0.438 2.69-1.44 4.69-3.92 1.31-7.74 1.29-11.8 1.42-1.3 0.0418-1.3 0.0418-2.63 0.0845-1.84 0.0564-3.68 0.11-5.52 0.161-2.81 0.0819-5.61 0.186-8.41 0.29-1.79 0.0521-3.58 0.103-5.37 0.152-1.25 0.0513-1.25 0.0513-2.53 0.104-5.03 0.108-8.33-0.437-12.7-3.21-2-2-2-2-2.44-4.81 0.576-4.2 2.24-5.52 5.44-8.19 5.05-2.53 12.9-1.4 18.5-1.46z" fill="#FCFDFF"/>
<path transform="translate(1123 1e3)" d="m0 0c2.95 2.27 5.81 4.62 8.64 7.04 2.18 1.97 2.18 1.97 4.36 2.96v2c0.583 0.267 1.17 0.534 1.77 0.809 3.82 2.03 6.78 4.62 9.23 8.19 0.722 3.11 0.868 5.91 0 9-4.11 2.74-7.18 2.7-12 2-10.5-3.51-21.5-14.2-28-23 0.0625-3.12 0.0625-3.12 1-6 0.227-0.742 0.454-1.49 0.688-2.25 3.96-5.28 9.47-3.87 14.3-0.75z" fill="#FCFDFF"/>
<path transform="translate(1222 820)" d="m0 0c1.5-0.0602 2.99-0.119 4.49-0.176 1.02-0.0701 1.02-0.0701 2.06-0.142 3.99-0.0864 6.12 0.712 8.94 3.38 2.38 2.52 2.57 3.23 3.12 6.89-0.595 3.5-0.846 4.24-3.56 6.31-1.97 0.394-1.97 0.394-4.22 0.42-0.848 0.0159-1.7 0.0318-2.57 0.0482-0.913 2.01e-4 -1.83 4.03e-4 -2.77 6.1e-4 -0.941 0.00761-1.88 0.0152-2.85 0.0231-1.99 0.0108-3.98 0.0137-5.97 0.00916-3.04-9.72e-4 -6.09 0.0406-9.13 0.085-1.93 0.00521-3.87 0.0079-5.8 0.00781-0.911 0.0164-1.82 0.0328-2.76 0.0497-6.29-0.0688-6.29-0.0688-9.53-2.99-1.4-2.65-1.4-2.65-1.46-5.72 1.38-3.81 2.6-4.82 6.06-6.94 3.24-0.636 6.45-0.7 9.75-0.75 1.39-0.0369 1.39-0.0369 2.8-0.0745 1.9-0.0467 3.79-0.0852 5.69-0.115 2.58-0.056 5.14-0.177 7.71-0.322z" fill="#FCFDFF"/>
<path transform="translate(570 997)" d="m0 0c1.91 0.699 1.91 0.699 3.91 1.7v2c0.99 0.33 1.98 0.66 3 1v9c-0.99 0.33-1.98 0.66-3 1-0.704 1.31-1.36 2.65-2 4-3.03 4.24-6.49 7.17-10.6 10.2-0.585 0.446-1.17 0.892-1.77 1.35-4.77 3.61-7.41 4.81-13.3 4.75-2.26-0.352-2.26-0.352-5.26-2.6-1.85-2.54-2.65-3.71-3-6.75 0.855-1.89 0.855-1.89 2.19-3.69 0.427-0.602 0.853-1.2 1.29-1.82 1.52-1.49 1.52-1.49 3.63-2.01 0.623-0.159 1.25-0.317 1.89-0.48 0.33-0.99 0.66-1.98 1-3 1.32-0.685 2.66-1.35 4-2 1.36-1.31 2.69-2.65 4-4 1.64-1.37 3.31-2.7 5-4 0.572-0.461 1.14-0.923 1.73-1.4 0.603-0.467 1.21-0.933 1.83-1.41 0.558-0.44 1.12-0.879 1.69-1.33 1.75-0.855 1.75-0.855 3.84-0.555z" fill="#FCFDFF"/>
<path transform="translate(1049,1074)" d="m0 0c4 2.83 6.91 6.15 9.81 10.1 0.427 0.569 0.853 1.14 1.29 1.72 0.874 1.17 1.75 2.34 2.62 3.51 1.21 1.62 2.46 3.2 3.71 4.79 0.726 0.941 1.45 1.88 2.2 2.85 0.978 1.25 0.978 1.25 1.98 2.53 1.7 3.09 1.73 5.06 1.4 8.54-0.938 2.38-0.938 2.38-3 4-3.28 1.14-5.69 1.06-9 0-4.19-3.2-7.6-7-11-11-0.856-1-1.71-2.01-2.59-3.04-2.18-2.62-4.31-5.27-6.41-7.96-0.568-0.694-1.14-1.39-1.72-2.1-2.03-3.02-1.71-5.36-1.28-8.9 3.25-5.16 6.07-6.84 12-5z" fill="#FCFDFF"/>
<path transform="translate(551,523)" d="m0 0c9.19 6.11 20 15.7 26 25 0.528 3.62 0.459 5.3-1.56 8.38-3.54 2.36-5.24 2.38-9.44 1.62-2.33-1.42-4.32-3.04-6.4-4.81-1.92-1.62-3.83-3.12-5.85-4.6-13.3-9.71-13.3-9.71-15.7-15.6 0.485-3.51 1.96-6.12 4-9 3.24-2.37 5.23-2.09 9-1z" fill="#FCFDFF"/>
<path transform="translate(1169 914)" d="m0 0c3.72 0.588 5.48 1.48 8.56 3.56 1.58 0.66 3.17 1.32 4.75 1.97 5.22 2.39 10.2 5.27 15.2 8.03v2h2c1.16 2.33 1.2 3.85 1.25 6.44 0.0387 1.17 0.0387 1.17 0.0781 2.37-0.407 2.72-1.15 3.56-3.33 5.19-11.5 2-24-6.7-33-13-2.73-2.28-2.95-2.6-3.44-6.31 0.665-5.61 1.97-9.28 7.88-10.2z" fill="#FCFDFF"/>
<path transform="translate(627,449)" d="m0 0c1.74 1.77 1.74 1.77 3.31 4.25 0.593 0.911 1.19 1.82 1.8 2.76 0.624 0.986 1.25 1.97 1.89 2.99 1.35 2.02 2.7 4.04 4.06 6.06 0.661 1 1.32 2.01 2 3.04 1.23 1.84 2.48 3.65 3.77 5.45 2.39 3.35 4.03 5.66 4.72 9.76-0.973 4.65-0.973 4.65-3.56 6.69-3.2 0.856-5.8 0.871-9 0-2.94-2.25-4.91-4.97-7-8-0.513-0.732-1.03-1.46-1.55-2.22-1-1.48-1.99-2.97-2.96-4.47-1.04-1.61-2.11-3.2-3.2-4.77-0.55-0.795-1.1-1.59-1.67-2.41-0.503-0.719-1.01-1.44-1.52-2.18-1.1-1.95-1.1-1.95-1.1-4.95h-2c-0.676-1.77-0.676-1.77-1-4 1.14-1.89 1.14-1.89 2.81-3.69 0.543-0.602 1.09-1.2 1.64-1.82 2.72-2.62 4.84-2.96 8.54-2.49z" fill="#FCFDFF"/>
<path transform="translate(521,915)" d="m0 0c2.85 2.15 3.71 3.7 4.48 7.16 0.398 4.42 0.398 4.42-0.477 6.84-4.7 3.91-9.82 6.6-15.3 9.25-0.715 0.351-1.43 0.701-2.17 1.06-1.84 0.901-3.68 1.79-5.52 2.69-0.66 0.33-1.32 0.66-2 1-4.06 0.568-8.21 1.06-11.8-1.09-1.41-1.47-1.41-1.47-3.16-4.91 0.397-4.53 1.46-6.44 4.62-9.69 2.86-2.12 5.89-3.7 9.11-5.2 2.37-1.12 2.37-1.12 4.91-2.7 5.65-3.37 10.7-6.22 17.4-4.42z" fill="#FCFDFF"/>
<path transform="translate(638,1072)" d="m0 0c4.03 1.55 7.58 4.43 10 8 0.723 4.48-0.865 6.95-3.31 10.6-0.615 0.941-1.23 1.88-1.86 2.85-1.51 2.08-2.86 3.88-4.82 5.52h-2c-0.227 0.66-0.454 1.32-0.688 2-0.433 0.99-0.866 1.98-1.31 3-0.295 0.697-0.59 1.39-0.895 2.11-1.18 2.35-2.21 4.06-4.11 5.89-3.52 1.02-6.45 0.871-10 0-3.19-2.06-3.19-2.06-5-5-0.0965-5.4 1.41-8.11 5-12 3.61-4.05 6.91-8.21 10.1-12.6 2.74-3.83 5.45-7.22 8.94-10.4z" fill="#FCFDFF"/>
<path transform="translate(737,402)" d="m0 0c3.74 3.69 4.9 7.28 6.12 12.3 0.165 0.669 0.329 1.34 0.499 2.03 0.463 1.89 0.92 3.77 1.38 5.66 0.416 1.42 0.832 2.83 1.25 4.25 0.978 4.89 1.32 9.78 0.75 14.8-2.35 2.35-3.03 2.37-6.25 2.5-3.41-0.11-5.51-0.514-8.12-2.75-3.82-4.43-4.54-10.2-5.62-15.8-0.554-2.39-1.19-4.5-2.06-6.81-1.08-3.66-1.35-6.39-0.938-10.2 3.65-5.6 6.34-6.69 13-6z" fill="#FCFDFF"/>
<path transform="translate(846,388)" d="m0 0c2.75 2.29 3.86 3.57 5 7 0.227 4.25 0.228 8.51 0.24 12.8 0.0097 2.09 0.0407 4.18 0.0723 6.27 0.00653 1.34 0.0118 2.67 0.0156 4.01 0.014 1.82 0.014 1.82 0.0283 3.67-0.388 3.57-1.18 5.45-3.36 8.27-2.34 0.664-2.34 0.664-4.94 0.625-0.855 0.0129-1.71 0.0258-2.59 0.0391-3.55-0.952-4.49-2.62-6.47-5.66-0.502-3.23-0.502-3.23-0.496-6.84-6.45e-4 -1.31-0.00129-2.62-0.00195-3.97 0.0104-0.678 0.0208-1.36 0.0315-2.05 0.0289-2.06 0.0206-4.12 0.00757-6.19 0.0721-11.3 0.0721-11.3 3.46-16.9 3.12-2.39 5.35-2.28 9-1z" fill="#FCFDFF"/>
<path transform="translate(1038,757)" d="m0 0h21v1h-21v-1z" fill="#000002"/>
<path transform="translate(984,1109)" d="m0 0h1v13h-1v-13z" fill="#000002"/>
<path transform="translate(1013,597)" d="m0 0c0.99 0.33 1.98 0.66 3 1-1.98 0.99-1.98 0.99-4 2 0.33-0.99 0.66-1.98 1-3z" fill="#000002"/>
<path transform="translate(996,897)" d="m0 0c0.99 0.33 1.98 0.66 3 1-0.66 0.66-1.32 1.32-2 2-0.33-0.99-0.66-1.98-1-3z" fill="#000002"/>
<path transform="translate(1203,837)" d="m0 0h5v1h-5v-1z" fill="#000002"/>
<path transform="translate(839,544)" d="m0 0h5v1h-5v-1z" fill="#000002"/>
<path transform="translate(1105,897)" d="m0 0 2 1c-0.66 0.66-1.32 1.32-2 2v-3z" fill="#000002"/>
<path transform="translate(796,983)" d="m0 0c3 1 3 1 3 1z" fill="#FCFDFF"/>
<path transform="translate(631,979)" d="m0 0h2c-0.33 0.66-0.66 1.32-1 2-0.33-0.66-0.66-1.32-1-2z" fill="#000002"/>
<path transform="translate(670,923)" d="m0 0 2 1-2 1v-2z" fill="#000002"/>
<path transform="translate(464,837)" d="m0 0c3 1 3 1 3 1z" fill="#000002"/>
<path transform="translate(825,545)" d="m0 0c3 1 3 1 3 1z" fill="#000002"/>
<path transform="translate(639,491)" d="m0 0c3 1 3 1 3 1z" fill="#000002"/>
<path transform="translate(827,1288)" d="m0 0 2 1z" fill="#000002"/>
<path transform="translate(725,1179)" d="m0 0 2 1z" fill="#7E7E80"/>
<path transform="translate(671,1041)" d="m0 0 2 1z" fill="#000002"/>
<path transform="translate(991,857)" d="m0 0 2 1z" fill="#000002"/>
<path transform="translate(1107,633)" d="m0 0 2 1z" fill="#000002"/>
<path transform="translate(1085,455)" d="m0 0 2 1z" fill="#000002"/>
</svg>
